<?xml version="1.0" encoding="iso-8859-1"?>
<!-- Generator: Adobe Illustrator 19.0.0, SVG Export Plug-In . SVG Version: 6.00 Build 0)  -->
<svg version="1.1" id="Capa_1" xmlns="http://www.w3.org/2000/svg" xmlns:xlink="http://www.w3.org/1999/xlink" x="0px" y="0px"
     viewBox="0 0 512 512" style="enable-background:new 0 0 512 512;" xml:space="preserve">
<g>
    
        <linearGradient id="SVGID_1_" gradientUnits="userSpaceOnUse" x1="-15.7584" y1="637.7729" x2="-15.7584" y2="574.241" gradientTransform="matrix(8.5333 0 0 -8.5333 369.1334 5433.2671)">
        <!-- <stop  offset="0" style="stop-color:#FC5C7D"/>
        <stop  offset="0.129" style="stop-color:#F35E85"/>
        <stop  offset="0.343" style="stop-color:#D9659B"/>
        <stop  offset="0.616" style="stop-color:#B070BF"/>
        <stop  offset="0.934" style="stop-color:#777FF0"/>
        <stop  offset="1" style="stop-color:#6A82FB"/> -->
        <stop  offset="0" style="stop-color:#fff"/>
        <stop  offset="1" style="stop-color:#fff"/>
    </linearGradient>
    <path style="fill:url(#SVGID_1_);" d="M273.067,238.933c-2.91,0.026-5.803,0.563-8.533,1.57V230.4c0-14.14-11.46-25.6-25.6-25.6
        c-14.14,0-25.6,11.46-25.6,25.6v1.57c-2.731-1.007-5.623-1.545-8.533-1.57c-14.14,0-25.6,11.46-25.6,25.6v60.501
        c-28.143,5.018-46.882,31.898-41.865,60.032c2.671,14.993,11.819,28.049,24.994,35.695l24.747,14.123
        c5.683,3.268,9.19,9.327,9.19,15.889v10.027h-8.533c-4.71,0-8.533,3.823-8.533,8.533v42.667c0,4.71,3.823,8.533,8.533,8.533
        h136.533c4.71,0,8.533-3.823,8.533-8.533V460.8c0-4.71-3.823-8.533-8.533-8.533h-8.533v-23.62
        c11.196-23.151,17.033-48.529,17.067-74.24v-64.273c0-14.14-11.46-25.6-25.6-25.6c-2.91,0.026-5.803,0.563-8.533,1.57v-1.57
        C298.667,250.394,287.206,238.933,273.067,238.933z M315.733,494.933H196.267v-25.6h119.467V494.933z M307.2,281.6
        c4.71,0,8.533,3.823,8.533,8.533v64.239c-0.043,23.774-5.589,47.215-16.213,68.48c-0.572,1.186-0.87,2.492-0.853,3.814v25.6
        h-85.333V442.24c-0.009-12.698-6.81-24.414-17.826-30.72l-24.747-14.131c-10.812-6.298-17.374-17.946-17.161-30.456
        c0.06-15.514,10.573-29.039,25.6-32.922V358.4h17.067V256c0-4.71,3.823-8.533,8.533-8.533c4.71,0,8.533,3.823,8.533,8.533v59.733
        H230.4V230.4c0-4.71,3.823-8.533,8.533-8.533s8.533,3.823,8.533,8.533v93.867h17.067v-59.733c0-4.71,3.823-8.533,8.533-8.533
        c4.71,0,8.533,3.823,8.533,8.533V332.8h17.067v-42.667C298.667,285.423,302.49,281.6,307.2,281.6z"/>
    
        <linearGradient id="SVGID_2_" gradientUnits="userSpaceOnUse" x1="3.7422" y1="637.7729" x2="3.7422" y2="574.241" gradientTransform="matrix(8.5333 0 0 -8.5333 369.1334 5433.2671)">
        <!-- <stop  offset="0" style="stop-color:#FC5C7D"/>
        <stop  offset="0.129" style="stop-color:#F35E85"/>
        <stop  offset="0.343" style="stop-color:#D9659B"/>
        <stop  offset="0.616" style="stop-color:#B070BF"/>
        <stop  offset="0.934" style="stop-color:#777FF0"/>
        <stop  offset="1" style="stop-color:#6A82FB"/> -->
        <stop  offset="0" style="stop-color:#fff"/>
        <stop  offset="1" style="stop-color:#fff"/>
    </linearGradient>
    <path style="fill:url(#SVGID_2_);" d="M486.4,68.267H315.733c-14.14,0-25.6,11.46-25.6,25.6v102.4c0,14.14,11.46,25.6,25.6,25.6
        H332.8v25.6c0,4.71,3.823,8.533,8.533,8.533c1.69,0,3.337-0.495,4.736-1.434l49.024-32.7H486.4c14.14,0,25.6-11.46,25.6-25.6
        v-102.4C512,79.727,500.54,68.267,486.4,68.267z M494.933,196.267c0,4.71-3.823,8.533-8.533,8.533h-93.867
        c-1.681,0-3.328,0.503-4.736,1.434l-37.931,25.293v-18.193c0-4.71-3.823-8.533-8.533-8.533h-25.6c-4.71,0-8.533-3.823-8.533-8.533
        v-102.4c0-4.71,3.823-8.533,8.533-8.533H486.4c4.71,0,8.533,3.823,8.533,8.533V196.267z"/>
    
        <linearGradient id="SVGID_3_" gradientUnits="userSpaceOnUse" x1="-30.2578" y1="637.7729" x2="-30.2578" y2="574.241" gradientTransform="matrix(8.5333 0 0 -8.5333 369.1334 5433.2671)">
        <!-- <stop  offset="0" style="stop-color:#FC5C7D"/>
        <stop  offset="0.129" style="stop-color:#F35E85"/>
        <stop  offset="0.343" style="stop-color:#D9659B"/>
        <stop  offset="0.616" style="stop-color:#B070BF"/>
        <stop  offset="0.934" style="stop-color:#777FF0"/>
        <stop  offset="1" style="stop-color:#6A82FB"/> -->
        <stop  offset="0" style="stop-color:#fff"/>
        <stop  offset="1" style="stop-color:#fff"/>
    </linearGradient>
    <path style="fill:url(#SVGID_3_);" d="M25.6,187.733h91.307l49.05,32.7c3.934,2.603,9.225,1.527,11.827-2.406
        c0.922-1.391,1.417-3.021,1.417-4.693v-25.6h17.067c14.14,0,25.6-11.46,25.6-25.6v-102.4c0-14.14-11.46-25.6-25.6-25.6H25.6
        c-14.14,0-25.6,11.46-25.6,25.6v102.4C0,176.273,11.46,187.733,25.6,187.733z M17.067,59.733c0-4.71,3.823-8.533,8.533-8.533
        h170.667c4.71,0,8.533,3.823,8.533,8.533v102.4c0,4.71-3.823,8.533-8.533,8.533h-25.6c-4.71,0-8.533,3.823-8.533,8.533v18.193
        L124.203,172.1c-1.408-0.93-3.055-1.434-4.736-1.434H25.6c-4.71,0-8.533-3.823-8.533-8.533V59.733z"/>
    
        <linearGradient id="SVGID_4_" gradientUnits="userSpaceOnUse" x1="-35.2578" y1="637.7729" x2="-35.2578" y2="574.241" gradientTransform="matrix(8.5333 0 0 -8.5333 369.1334 5433.2671)">
        <!-- <stop  offset="0" style="stop-color:#FC5C7D"/>
        <stop  offset="0.129" style="stop-color:#F35E85"/>
        <stop  offset="0.343" style="stop-color:#D9659B"/>
        <stop  offset="0.616" style="stop-color:#B070BF"/>
        <stop  offset="0.934" style="stop-color:#777FF0"/>
        <stop  offset="1" style="stop-color:#6A82FB"/> -->
        <stop  offset="0" style="stop-color:#fff"/>
        <stop  offset="1" style="stop-color:#fff"/>
    </linearGradient>
    <rect x="59.733" y="68.267" style="fill:url(#SVGID_4_);" width="17.067" height="17.067"/>
    
        <linearGradient id="SVGID_5_" gradientUnits="userSpaceOnUse" x1="-27.2578" y1="637.7729" x2="-27.2578" y2="574.241" gradientTransform="matrix(8.5333 0 0 -8.5333 369.1334 5433.2671)">
        <!-- <stop  offset="0" style="stop-color:#FC5C7D"/>
        <stop  offset="0.129" style="stop-color:#F35E85"/>
        <stop  offset="0.343" style="stop-color:#D9659B"/>
        <stop  offset="0.616" style="stop-color:#B070BF"/>
        <stop  offset="0.934" style="stop-color:#777FF0"/>
        <stop  offset="1" style="stop-color:#6A82FB"/> -->
        <stop  offset="0" style="stop-color:#fff"/>
        <stop  offset="1" style="stop-color:#fff"/>
    </linearGradient>
    <rect x="93.867" y="68.267" style="fill:url(#SVGID_5_);" width="85.333" height="17.067"/>
    
        <linearGradient id="SVGID_6_" gradientUnits="userSpaceOnUse" x1="-30.2578" y1="637.7729" x2="-30.2578" y2="574.241" gradientTransform="matrix(8.5333 0 0 -8.5333 369.1334 5433.2671)">
        <!-- <stop  offset="0" style="stop-color:#FC5C7D"/>
        <stop  offset="0.129" style="stop-color:#F35E85"/>
        <stop  offset="0.343" style="stop-color:#D9659B"/>
        <stop  offset="0.616" style="stop-color:#B070BF"/>
        <stop  offset="0.934" style="stop-color:#777FF0"/>
        <stop  offset="1" style="stop-color:#6A82FB"/> -->
        <stop  offset="0" style="stop-color:#fff"/>
        <stop  offset="1" style="stop-color:#fff"/>
    </linearGradient>
    <rect x="42.667" y="102.4" style="fill:url(#SVGID_6_);" width="136.533" height="17.067"/>
    
        <linearGradient id="SVGID_7_" gradientUnits="userSpaceOnUse" x1="-32.2578" y1="637.7729" x2="-32.2578" y2="574.241" gradientTransform="matrix(8.5333 0 0 -8.5333 369.1334 5433.2671)">
        <!-- <stop  offset="0" style="stop-color:#FC5C7D"/>
        <stop  offset="0.129" style="stop-color:#F35E85"/>
        <stop  offset="0.343" style="stop-color:#D9659B"/>
        <stop  offset="0.616" style="stop-color:#B070BF"/>
        <stop  offset="0.934" style="stop-color:#777FF0"/>
        <stop  offset="1" style="stop-color:#6A82FB"/> -->
        <stop  offset="0" style="stop-color:#fff"/>
        <stop  offset="1" style="stop-color:#fff"/>
    </linearGradient>
    <rect x="42.667" y="136.533" style="fill:url(#SVGID_7_);" width="102.4" height="17.067"/>
    
        <linearGradient id="SVGID_8_" gradientUnits="userSpaceOnUse" x1="-1.2578" y1="637.7729" x2="-1.2578" y2="574.241" gradientTransform="matrix(8.5333 0 0 -8.5333 369.1334 5433.2671)">
        <!-- <stop  offset="0" style="stop-color:#FC5C7D"/>
        <stop  offset="0.129" style="stop-color:#F35E85"/>
        <stop  offset="0.343" style="stop-color:#D9659B"/>
        <stop  offset="0.616" style="stop-color:#B070BF"/>
        <stop  offset="0.934" style="stop-color:#777FF0"/>
        <stop  offset="1" style="stop-color:#6A82FB"/> -->
        <stop  offset="0" style="stop-color:#fff"/>
        <stop  offset="1" style="stop-color:#fff"/>

    </linearGradient>
    <rect x="349.867" y="102.4" style="fill:url(#SVGID_8_);" width="17.067" height="17.067"/>
    
        <linearGradient id="SVGID_9_" gradientUnits="userSpaceOnUse" x1="6.7422" y1="637.7729" x2="6.7422" y2="574.241" gradientTransform="matrix(8.5333 0 0 -8.5333 369.1334 5433.2671)">
        <!-- <stop  offset="0" style="stop-color:#FC5C7D"/>
        <stop  offset="0.129" style="stop-color:#F35E85"/>
        <stop  offset="0.343" style="stop-color:#D9659B"/>
        <stop  offset="0.616" style="stop-color:#B070BF"/>
        <stop  offset="0.934" style="stop-color:#777FF0"/>
        <stop  offset="1" style="stop-color:#6A82FB"/> -->
        <stop  offset="0" style="stop-color:#fff"/>
        <stop  offset="1" style="stop-color:#fff"/>

    </linearGradient>
    <rect x="384" y="102.4" style="fill:url(#SVGID_9_);" width="85.333" height="17.067"/>
    
        <linearGradient id="SVGID_10_" gradientUnits="userSpaceOnUse" x1="3.7422" y1="637.7729" x2="3.7422" y2="574.241" gradientTransform="matrix(8.5333 0 0 -8.5333 369.1334 5433.2671)">
        <!-- <stop  offset="0" style="stop-color:#FC5C7D"/>
        <stop  offset="0.129" style="stop-color:#F35E85"/>
        <stop  offset="0.343" style="stop-color:#D9659B"/>
        <stop  offset="0.616" style="stop-color:#B070BF"/>
        <stop  offset="0.934" style="stop-color:#777FF0"/>
        <stop  offset="1" style="stop-color:#6A82FB"/> -->
        <stop  offset="0" style="stop-color:#fff"/>
        <stop  offset="1" style="stop-color:#fff"/>

    </linearGradient>
    <rect x="332.8" y="136.533" style="fill:url(#SVGID_10_);" width="136.533" height="17.067"/>
    
        <linearGradient id="SVGID_11_" gradientUnits="userSpaceOnUse" x1="1.7422" y1="637.7729" x2="1.7422" y2="574.241" gradientTransform="matrix(8.5333 0 0 -8.5333 369.1334 5433.2671)">
        <!-- <stop  offset="0" style="stop-color:#FC5C7D"/>
        <stop  offset="0.129" style="stop-color:#F35E85"/>
        <stop  offset="0.343" style="stop-color:#D9659B"/>
        <stop  offset="0.616" style="stop-color:#B070BF"/>
        <stop  offset="0.934" style="stop-color:#777FF0"/>
        <stop  offset="1" style="stop-color:#6A82FB"/> -->
        <stop  offset="0" style="stop-color:#fff"/>
        <stop  offset="1" style="stop-color:#fff"/>

    </linearGradient>
    <rect x="332.8" y="170.667" style="fill:url(#SVGID_11_);" width="102.4" height="17.067"/>
    
        <linearGradient id="SVGID_12_" gradientUnits="userSpaceOnUse" x1="-20.7578" y1="637.7729" x2="-20.7578" y2="574.241" gradientTransform="matrix(8.5333 0 0 -8.5333 369.1334 5433.2671)">
        <!-- <stop  offset="0" style="stop-color:#FC5C7D"/>
        <stop  offset="0.129" style="stop-color:#F35E85"/>
        <stop  offset="0.343" style="stop-color:#D9659B"/>
        <stop  offset="0.616" style="stop-color:#B070BF"/>
        <stop  offset="0.934" style="stop-color:#777FF0"/>
        <stop  offset="1" style="stop-color:#6A82FB"/> -->
        <stop  offset="0" style="stop-color:#fff"/>
        <stop  offset="1" style="stop-color:#fff"/>

    </linearGradient>
    <path style="fill:url(#SVGID_12_);" d="M256,68.267v-25.6C255.974,19.115,236.885,0.026,213.333,0H128v17.067h85.333
        c14.14,0,25.6,11.46,25.6,25.6v25.6H256z"/>
    
        <linearGradient id="SVGID_13_" gradientUnits="userSpaceOnUse" x1="-31.2578" y1="637.7729" x2="-31.2578" y2="574.241" gradientTransform="matrix(8.5333 0 0 -8.5333 369.1334 5433.2671)">
        <!-- <stop  offset="0" style="stop-color:#FC5C7D"/>
        <stop  offset="0.129" style="stop-color:#F35E85"/>
        <stop  offset="0.343" style="stop-color:#D9659B"/>
        <stop  offset="0.616" style="stop-color:#B070BF"/>
        <stop  offset="0.934" style="stop-color:#777FF0"/>
        <stop  offset="1" style="stop-color:#6A82FB"/> -->
        <stop  offset="0" style="stop-color:#fff"/>
        <stop  offset="1" style="stop-color:#fff"/>

    </linearGradient>
    <rect x="93.867" style="fill:url(#SVGID_13_);" width="17.067" height="17.067"/>
    
        <linearGradient id="SVGID_14_" gradientUnits="userSpaceOnUse" x1="9.2422" y1="637.7729" x2="9.2422" y2="574.241" gradientTransform="matrix(8.5333 0 0 -8.5333 369.1334 5433.2671)">
        <!-- <stop  offset="0" style="stop-color:#FC5C7D"/>
        <stop  offset="0.129" style="stop-color:#F35E85"/>
        <stop  offset="0.343" style="stop-color:#D9659B"/>
        <stop  offset="0.616" style="stop-color:#B070BF"/>
        <stop  offset="0.934" style="stop-color:#777FF0"/>
        <stop  offset="1" style="stop-color:#6A82FB"/> -->
        <stop  offset="0" style="stop-color:#fff"/>
        <stop  offset="1" style="stop-color:#fff"/>

    </linearGradient>
    <rect x="409.6" y="238.933" style="fill:url(#SVGID_14_);" width="76.8" height="17.067"/>
    
        <linearGradient id="SVGID_15_" gradientUnits="userSpaceOnUse" x1="-1.2578" y1="637.7729" x2="-1.2578" y2="574.241" gradientTransform="matrix(8.5333 0 0 -8.5333 369.1334 5433.2671)">
        <!-- <stop  offset="0" style="stop-color:#FC5C7D"/>
        <stop  offset="0.129" style="stop-color:#F35E85"/>
        <stop  offset="0.343" style="stop-color:#D9659B"/>
        <stop  offset="0.616" style="stop-color:#B070BF"/>
        <stop  offset="0.934" style="stop-color:#777FF0"/>
        <stop  offset="1" style="stop-color:#6A82FB"/> -->
        <stop  offset="0" style="stop-color:#fff"/>
        <stop  offset="1" style="stop-color:#fff"/>

    </linearGradient>
    <rect x="349.867" y="315.733" style="fill:url(#SVGID_15_);" width="17.067" height="76.8"/>
    
        <linearGradient id="SVGID_16_" gradientUnits="userSpaceOnUse" x1="-1.2578" y1="637.7729" x2="-1.2578" y2="574.241" gradientTransform="matrix(8.5333 0 0 -8.5333 369.1334 5433.2671)">
        <!-- <stop  offset="0" style="stop-color:#FC5C7D"/>
        <stop  offset="0.129" style="stop-color:#F35E85"/>
        <stop  offset="0.343" style="stop-color:#D9659B"/>
        <stop  offset="0.616" style="stop-color:#B070BF"/>
        <stop  offset="0.934" style="stop-color:#777FF0"/>
        <stop  offset="1" style="stop-color:#6A82FB"/> -->
        <stop  offset="0" style="stop-color:#fff"/>
        <stop  offset="1" style="stop-color:#fff"/>

    </linearGradient>
    <rect x="349.867" y="409.6" style="fill:url(#SVGID_16_);" width="17.067" height="17.067"/>
</g>
<g>
</g>
<g>
</g>
<g>
</g>
<g>
</g>
<g>
</g>
<g>
</g>
<g>
</g>
<g>
</g>
<g>
</g>
<g>
</g>
<g>
</g>
<g>
</g>
<g>
</g>
<g>
</g>
<g>
</g>
</svg>
